<svg role="img" viewBox="0 0 24 24" xmlns="http://www.w3.org/2000/svg"><title>Ferrari</title><path d="M12.2 0.5c-0.2 0-0.4 0.1-0.5 0.3-0.2 0.7-0.6 1.3-1.1 1.8-0.4 0.4-1 0.7-1.7 0.8l-.3 0c-.2 0-.3.3-.3.5s.3.3.5.3l.3 0c.8-.1 1.6-.5 2.2-1.1.4-.4.7-.8.9-1.3l.3-.2c.8 0 1.6.2 2.3.5 0.5.2 1 .6 1.3 1 .2.2.4.3.6.3h.5c.7 0 1.3.3 1.7.7.4.4.6.9.6 1.5v.9c0 .4-.2.7-.4.9s-.6.4-.9.4c-1 0-1.8.4-2.5 1-0.7.7-1 1.6-1 2.5v5.5c0 .2 0 .4-.1.6-.3 1.4-.9 2.7-1.8 3.7-1.1 1.3-2.6 2.2-4.3 2.7-1.6.4-3.2.4-4.8.1-2.1-.4-4-1.5-5.3-3-1.2-1.4-2-3-2.3-4.8-.4-2-.2-4.1.4-6.1.5-1.6 1.3-3.1 2.3-4.4 1.3-1.5 2.9-2.6 4.7-3.2 0.8-.2 1.5-.4 2.3-.4l.4-.4s-.2-.2-.4-.2c-.9 0-1.8.2-2.6.4-1.9.6-3.7 1.8-5 3.4-1.2 1.4-2 3-2.5 4.7-.6 2.1-.8 4.4-.4 6.6.4 2 1.2 3.8 2.5 5.2 1.5 1.7 3.4 2.9 5.6 3.4 1.8.4 3.6.4 5.4 0 1.9-.4 3.6-1.4 4.8-2.9 1-1.2 1.7-2.6 2-4.1v-8.8c0-.7.3-1.4.8-1.9.5-.5 1.2-.8 1.9-.8h.5l.4-.4V9.6c0-.4-.2-.8-.4-1.1-.3-.3-.8-.5-1.3-.5H18.8c-.3 0-.6-.1-.9-.4s-.4-.6-.5-1c-.1-.5-.3-1-.6-1.4-.4-.5-1-1-1.7-1.2-.8-.4-1.8-.6-2.9-.6z" fill="currentColor"/></svg>
