<svg xmlns="http://www.w3.org/2000/svg" style="display:none">
<defs>

<symbol id="icon-menu" viewBox="0 0 24 24"><path d="M3 6h18M3 12h18M3 18h18" fill="none" stroke="currentColor" stroke-width="1.75" stroke-linecap="round"/></symbol>
<symbol id="icon-close" viewBox="0 0 24 24"><path d="M5 5l14 14M19 5L5 19" fill="none" stroke="currentColor" stroke-width="1.75" stroke-linecap="round"/></symbol>
<symbol id="icon-search" viewBox="0 0 24 24"><circle cx="10.5" cy="10.5" r="6.5" fill="none" stroke="currentColor" stroke-width="1.75"/><path d="M20 20l-4.8-4.8" fill="none" stroke="currentColor" stroke-width="1.75" stroke-linecap="round"/></symbol>
<symbol id="icon-map-pin" viewBox="0 0 24 24"><path d="M12 21s7-6.1 7-11.5A7 7 0 0 0 5 9.5C5 14.9 12 21 12 21Z" fill="none" stroke="currentColor" stroke-width="1.75" stroke-linejoin="round"/><circle cx="12" cy="9.5" r="2.3" fill="none" stroke="currentColor" stroke-width="1.75"/></symbol>
<symbol id="icon-calendar" viewBox="0 0 24 24"><rect x="3.5" y="5" width="17" height="15.5" rx="2" fill="none" stroke="currentColor" stroke-width="1.75"/><path d="M3.5 9.5h17M8 3v3.5M16 3v3.5" fill="none" stroke="currentColor" stroke-width="1.75" stroke-linecap="round"/></symbol>
<symbol id="icon-clock" viewBox="0 0 24 24"><circle cx="12" cy="12" r="8.5" fill="none" stroke="currentColor" stroke-width="1.75"/><path d="M12 7.5V12l3.2 2" fill="none" stroke="currentColor" stroke-width="1.75" stroke-linecap="round" stroke-linejoin="round"/></symbol>
<symbol id="icon-phone" viewBox="0 0 24 24"><path d="M6 3.5h3l1.5 4-2 1.5a11 11 0 0 0 5.5 5.5l1.5-2 4 1.5v3a2 2 0 0 1-2.2 2A16.5 16.5 0 0 1 4 5.7 2 2 0 0 1 6 3.5Z" fill="none" stroke="currentColor" stroke-width="1.6" stroke-linejoin="round"/></symbol>
<symbol id="icon-mail" viewBox="0 0 24 24"><rect x="3" y="5" width="18" height="14" rx="2" fill="none" stroke="currentColor" stroke-width="1.75"/><path d="M4 6.5l8 6.5 8-6.5" fill="none" stroke="currentColor" stroke-width="1.75" stroke-linecap="round" stroke-linejoin="round"/></symbol>
<symbol id="icon-star" viewBox="0 0 24 24"><path d="M12 3.2l2.7 5.6 6.1.9-4.4 4.3 1 6.1L12 17l-5.4 3 1-6-4.4-4.4 6.1-.9Z" fill="currentColor" stroke="currentColor" stroke-width="1.2" stroke-linejoin="round"/></symbol>
<symbol id="icon-star-outline" viewBox="0 0 24 24"><path d="M12 3.2l2.7 5.6 6.1.9-4.4 4.3 1 6.1L12 17l-5.4 3 1-6-4.4-4.4 6.1-.9Z" fill="none" stroke="currentColor" stroke-width="1.5" stroke-linejoin="round"/></symbol>
<symbol id="icon-check" viewBox="0 0 24 24"><path d="M4 12.5l5.5 5.5L20 6.5" fill="none" stroke="currentColor" stroke-width="2" stroke-linecap="round" stroke-linejoin="round"/></symbol>
<symbol id="icon-check-circle" viewBox="0 0 24 24"><circle cx="12" cy="12" r="8.5" fill="none" stroke="currentColor" stroke-width="1.75"/><path d="M8 12.3l2.6 2.6L16.3 9" fill="none" stroke="currentColor" stroke-width="1.75" stroke-linecap="round" stroke-linejoin="round"/></symbol>
<symbol id="icon-arrow-right" viewBox="0 0 24 24"><path d="M4 12h16M14 6l6 6-6 6" fill="none" stroke="currentColor" stroke-width="1.75" stroke-linecap="round" stroke-linejoin="round"/></symbol>
<symbol id="icon-arrow-up-right" viewBox="0 0 24 24"><path d="M6 18L18 6M9 6h9v9" fill="none" stroke="currentColor" stroke-width="1.75" stroke-linecap="round" stroke-linejoin="round"/></symbol>
<symbol id="icon-chevron-down" viewBox="0 0 24 24"><path d="M5.5 8.5L12 15l6.5-6.5" fill="none" stroke="currentColor" stroke-width="1.75" stroke-linecap="round" stroke-linejoin="round"/></symbol>
<symbol id="icon-chevron-left" viewBox="0 0 24 24"><path d="M15 5l-7 7 7 7" fill="none" stroke="currentColor" stroke-width="1.75" stroke-linecap="round" stroke-linejoin="round"/></symbol>
<symbol id="icon-chevron-right" viewBox="0 0 24 24"><path d="M9 5l7 7-7 7" fill="none" stroke="currentColor" stroke-width="1.75" stroke-linecap="round" stroke-linejoin="round"/></symbol>
<symbol id="icon-heart" viewBox="0 0 24 24"><path d="M12 20.2S3.8 15.3 3.8 9.3A4.8 4.8 0 0 1 12 6.2a4.8 4.8 0 0 1 8.2 3.1c0 6-8.2 10.9-8.2 10.9Z" fill="none" stroke="currentColor" stroke-width="1.6" stroke-linejoin="round"/></symbol>
<symbol id="icon-heart-filled" viewBox="0 0 24 24"><path d="M12 20.2S3.8 15.3 3.8 9.3A4.8 4.8 0 0 1 12 6.2a4.8 4.8 0 0 1 8.2 3.1c0 6-8.2 10.9-8.2 10.9Z" fill="currentColor" stroke="currentColor" stroke-width="1.6" stroke-linejoin="round"/></symbol>
<symbol id="icon-shield-check" viewBox="0 0 24 24"><path d="M12 3l7 3v5.5c0 5-3 8-7 9.5-4-1.5-7-4.5-7-9.5V6Z" fill="none" stroke="currentColor" stroke-width="1.6" stroke-linejoin="round"/><path d="M9 12l2.2 2.2L15.5 10" fill="none" stroke="currentColor" stroke-width="1.6" stroke-linecap="round" stroke-linejoin="round"/></symbol>
<symbol id="icon-fuel" viewBox="0 0 24 24"><path d="M5 21V6a1.5 1.5 0 0 1 1.5-1.5h5A1.5 1.5 0 0 1 13 6v15M3.5 21h11" fill="none" stroke="currentColor" stroke-width="1.6" stroke-linecap="round" stroke-linejoin="round"/><path d="M13 10.5l3 2v4.8a1.7 1.7 0 0 0 3.4 0V9.8L17 6.5" fill="none" stroke="currentColor" stroke-width="1.6" stroke-linecap="round" stroke-linejoin="round"/></symbol>
<symbol id="icon-gauge" viewBox="0 0 24 24"><path d="M4 15a8 8 0 1 1 16 0" fill="none" stroke="currentColor" stroke-width="1.6"/><path d="M12 15l3.2-4.4" fill="none" stroke="currentColor" stroke-width="1.6" stroke-linecap="round"/><circle cx="12" cy="15" r="1.2" fill="currentColor"/></symbol>
<symbol id="icon-users" viewBox="0 0 24 24"><circle cx="9" cy="8.5" r="3" fill="none" stroke="currentColor" stroke-width="1.6"/><path d="M3.5 19c.6-3.2 2.9-5 5.5-5s4.9 1.8 5.5 5" fill="none" stroke="currentColor" stroke-width="1.6" stroke-linecap="round"/><path d="M15.5 6a3 3 0 0 1 0 5.8M17.5 19c-.4-2.2-1.4-3.7-2.9-4.6" fill="none" stroke="currentColor" stroke-width="1.6" stroke-linecap="round"/></symbol>
<symbol id="icon-zap" viewBox="0 0 24 24"><path d="M12.5 2.5L5 13.5h5.5L11 21.5l7.5-11.5H13Z" fill="none" stroke="currentColor" stroke-width="1.5" stroke-linejoin="round"/></symbol>
<symbol id="icon-wrench" viewBox="0 0 24 24"><path d="M14.7 6.3a4 4 0 0 0-5.4 4.6L4 16.2l2.8 2.8 5.3-5.3a4 4 0 0 0 4.6-5.4l-2.6 2.6-2.1-.7-.7-2.1Z" fill="none" stroke="currentColor" stroke-width="1.5" stroke-linejoin="round"/></symbol>
<symbol id="icon-tag" viewBox="0 0 24 24"><path d="M11.5 3.5H5v6.5L15 20l6.5-6.5-10-10Z" fill="none" stroke="currentColor" stroke-width="1.6" stroke-linejoin="round"/><circle cx="8.5" cy="7.5" r="1.3" fill="currentColor"/></symbol>
<symbol id="icon-car" viewBox="0 0 24 24"><path d="M4 16.5V13l1.8-4.8A2 2 0 0 1 7.7 7h8.6a2 2 0 0 1 1.9 1.2L20 13v3.5" fill="none" stroke="currentColor" stroke-width="1.6" stroke-linejoin="round"/><path d="M4 16.5h16M4 13h16" fill="none" stroke="currentColor" stroke-width="1.6"/><circle cx="7.5" cy="16.5" r="1.6" fill="none" stroke="currentColor" stroke-width="1.6"/><circle cx="16.5" cy="16.5" r="1.6" fill="none" stroke="currentColor" stroke-width="1.6"/></symbol>
<symbol id="icon-car-sports" viewBox="0 0 24 24"><path d="M2.5 15.5l1-3.3c.4-1.3 1.2-2.4 3.6-2.7l3-3.5h6l2.4 3.6c1.8.3 3 1 3.5 2.6l1 3.3" fill="none" stroke="currentColor" stroke-width="1.6" stroke-linejoin="round"/><path d="M2.5 15.5h19M6 12.5h12" fill="none" stroke="currentColor" stroke-width="1.6"/><circle cx="6.8" cy="15.5" r="1.5" fill="none" stroke="currentColor" stroke-width="1.6"/><circle cx="17.2" cy="15.5" r="1.5" fill="none" stroke="currentColor" stroke-width="1.6"/></symbol>
<symbol id="icon-car-suv" viewBox="0 0 24 24"><path d="M3.5 16V12l1.3-4.2A2 2 0 0 1 6.7 6.4h6.9l4 3.2h1.4a2 2 0 0 1 2 2V16" fill="none" stroke="currentColor" stroke-width="1.6" stroke-linejoin="round"/><path d="M3.5 16h17M3.5 12h17" fill="none" stroke="currentColor" stroke-width="1.6"/><circle cx="7.3" cy="16" r="1.6" fill="none" stroke="currentColor" stroke-width="1.6"/><circle cx="16.8" cy="16" r="1.6" fill="none" stroke="currentColor" stroke-width="1.6"/></symbol>
<symbol id="icon-quote" viewBox="0 0 24 24"><path d="M9.5 6.5c-3 1-4.5 3.3-4.5 6.3 0 2.4 1.6 4 3.6 4 1.7 0 3-1.3 3-3s-1.2-2.9-2.8-2.9c-.2 0-.4 0-.6.1.2-1.7 1.4-3 3.3-3.6l-2-.9Zm9 0c-3 1-4.5 3.3-4.5 6.3 0 2.4 1.6 4 3.6 4 1.7 0 3-1.3 3-3s-1.2-2.9-2.8-2.9c-.2 0-.4 0-.6.1.2-1.7 1.4-3 3.3-3.6l-2-.9Z" fill="currentColor"/></symbol>
<symbol id="icon-camera" viewBox="0 0 24 24"><path d="M4 8.5A1.5 1.5 0 0 1 5.5 7h2l1-2h7l1 2h2A1.5 1.5 0 0 1 20 8.5v9A1.5 1.5 0 0 1 18.5 19h-13A1.5 1.5 0 0 1 4 17.5Z" fill="none" stroke="currentColor" stroke-width="1.6" stroke-linejoin="round"/><circle cx="12" cy="13" r="3.3" fill="none" stroke="currentColor" stroke-width="1.6"/></symbol>
<symbol id="icon-upload" viewBox="0 0 24 24"><path d="M12 15.5V4.5M7.5 9L12 4.5 16.5 9" fill="none" stroke="currentColor" stroke-width="1.75" stroke-linecap="round" stroke-linejoin="round"/><path d="M4.5 15.5v3a2 2 0 0 0 2 2h11a2 2 0 0 0 2-2v-3" fill="none" stroke="currentColor" stroke-width="1.75" stroke-linecap="round"/></symbol>
<symbol id="icon-bell" viewBox="0 0 24 24"><path d="M6 10.5a6 6 0 0 1 12 0c0 4 1.3 5.2 1.3 5.2H4.7S6 14.5 6 10.5Z" fill="none" stroke="currentColor" stroke-width="1.6" stroke-linejoin="round"/><path d="M9.8 18.7a2.3 2.3 0 0 0 4.4 0" fill="none" stroke="currentColor" stroke-width="1.6" stroke-linecap="round"/></symbol>
<symbol id="icon-arrow-up" viewBox="0 0 24 24"><path d="M12 19V5M6 11l6-6 6 6" fill="none" stroke="currentColor" stroke-width="1.75" stroke-linecap="round" stroke-linejoin="round"/></symbol>
<symbol id="icon-steering" viewBox="0 0 24 24"><circle cx="12" cy="12" r="8.5" fill="none" stroke="currentColor" stroke-width="1.6"/><circle cx="12" cy="12" r="2" fill="none" stroke="currentColor" stroke-width="1.6"/><path d="M12 5.5v4.3M6.8 15.2l3.5-2M17.2 15.2l-3.5-2" fill="none" stroke="currentColor" stroke-width="1.6" stroke-linecap="round"/></symbol>
<symbol id="icon-clipboard" viewBox="0 0 24 24"><rect x="6" y="4.5" width="12" height="16" rx="2" fill="none" stroke="currentColor" stroke-width="1.6"/><rect x="9" y="3" width="6" height="3.2" rx="1" fill="none" stroke="currentColor" stroke-width="1.6"/><path d="M9 12h6M9 15.5h6" stroke="currentColor" stroke-width="1.6" stroke-linecap="round"/></symbol>
<symbol id="icon-credit-card" viewBox="0 0 24 24"><rect x="3" y="6" width="18" height="13" rx="2" fill="none" stroke="currentColor" stroke-width="1.6"/><path d="M3 10.5h18" stroke="currentColor" stroke-width="1.6"/><path d="M6.5 15h4" stroke="currentColor" stroke-width="1.6" stroke-linecap="round"/></symbol>
<symbol id="icon-log-out" viewBox="0 0 24 24"><path d="M14.5 8V6a2 2 0 0 0-2-2H6.5a2 2 0 0 0-2 2v12a2 2 0 0 0 2 2H12.5a2 2 0 0 0 2-2v-2" fill="none" stroke="currentColor" stroke-width="1.6" stroke-linecap="round" stroke-linejoin="round"/><path d="M9.5 12h11M17 8.3l3.5 3.7-3.5 3.7" fill="none" stroke="currentColor" stroke-width="1.6" stroke-linecap="round" stroke-linejoin="round"/></symbol>
<symbol id="icon-settings" viewBox="0 0 24 24"><circle cx="12" cy="12" r="3" fill="none" stroke="currentColor" stroke-width="1.6"/><path d="M12 3.5v2.3M12 18.2v2.3M20.5 12h-2.3M5.8 12H3.5M17.7 6.3l-1.6 1.6M7.9 16.1l-1.6 1.6M17.7 17.7l-1.6-1.6M7.9 7.9L6.3 6.3" fill="none" stroke="currentColor" stroke-width="1.6" stroke-linecap="round"/></symbol>
<symbol id="icon-download" viewBox="0 0 24 24"><path d="M12 3.5v11M7.5 10l4.5 4.5L16.5 10" fill="none" stroke="currentColor" stroke-width="1.75" stroke-linecap="round" stroke-linejoin="round"/><path d="M4.5 15.5v3a2 2 0 0 0 2 2h11a2 2 0 0 0 2-2v-3" fill="none" stroke="currentColor" stroke-width="1.75" stroke-linecap="round"/></symbol>
<symbol id="icon-filter" viewBox="0 0 24 24"><path d="M3.5 5h17L14 13.5V19l-4 2v-7.5Z" fill="none" stroke="currentColor" stroke-width="1.6" stroke-linejoin="round"/></symbol>
<symbol id="icon-trash" viewBox="0 0 24 24"><path d="M5 7h14M9.5 7V5a1.5 1.5 0 0 1 1.5-1.5h2A1.5 1.5 0 0 1 14.5 5v2M18 7l-.8 12a2 2 0 0 1-2 1.9H8.8a2 2 0 0 1-2-1.9L6 7" fill="none" stroke="currentColor" stroke-width="1.6" stroke-linecap="round" stroke-linejoin="round"/></symbol>
<symbol id="icon-edit" viewBox="0 0 24 24"><path d="M14 4.5l5.5 5.5L8 21H3v-5.5Z" fill="none" stroke="currentColor" stroke-width="1.6" stroke-linejoin="round"/></symbol>
<symbol id="icon-eye" viewBox="0 0 24 24"><path d="M2.5 12S6 5.5 12 5.5 21.5 12 21.5 12 18 18.5 12 18.5 2.5 12 2.5 12Z" fill="none" stroke="currentColor" stroke-width="1.6" stroke-linejoin="round"/><circle cx="12" cy="12" r="3" fill="none" stroke="currentColor" stroke-width="1.6"/></symbol>
<symbol id="icon-eye-off" viewBox="0 0 24 24"><path d="M3.5 3.5l17 17" stroke="currentColor" stroke-width="1.6" stroke-linecap="round"/><path d="M6.4 6.6C4 8.3 2.5 12 2.5 12S6 18.5 12 18.5c1.7 0 3.2-.5 4.4-1.2M10.4 5.7c.5-.1 1-.2 1.6-.2 6 0 9.5 6.5 9.5 6.5s-.7 1.3-2 2.7" fill="none" stroke="currentColor" stroke-width="1.6" stroke-linecap="round" stroke-linejoin="round"/></symbol>
<symbol id="icon-alert-triangle" viewBox="0 0 24 24"><path d="M12 4.5 21 19H3Z" fill="none" stroke="currentColor" stroke-width="1.6" stroke-linejoin="round"/><path d="M12 10v3.5" stroke="currentColor" stroke-width="1.6" stroke-linecap="round"/><circle cx="12" cy="16.2" r="1" fill="currentColor"/></symbol>
<symbol id="icon-info" viewBox="0 0 24 24"><circle cx="12" cy="12" r="8.5" fill="none" stroke="currentColor" stroke-width="1.6"/><path d="M12 11v5.5" stroke="currentColor" stroke-width="1.6" stroke-linecap="round"/><circle cx="12" cy="8" r="1" fill="currentColor"/></symbol>
<symbol id="icon-x-circle" viewBox="0 0 24 24"><circle cx="12" cy="12" r="8.5" fill="none" stroke="currentColor" stroke-width="1.6"/><path d="M9 9l6 6M15 9l-6 6" stroke="currentColor" stroke-width="1.6" stroke-linecap="round"/></symbol>
<symbol id="icon-plus" viewBox="0 0 24 24"><path d="M12 5v14M5 12h14" stroke="currentColor" stroke-width="1.75" stroke-linecap="round"/></symbol>
<symbol id="icon-minus" viewBox="0 0 24 24"><path d="M5 12h14" stroke="currentColor" stroke-width="1.75" stroke-linecap="round"/></symbol>
<symbol id="icon-lock" viewBox="0 0 24 24"><rect x="5" y="10.5" width="14" height="9.5" rx="2" fill="none" stroke="currentColor" stroke-width="1.6"/><path d="M8 10.5V7.5a4 4 0 0 1 8 0v3" fill="none" stroke="currentColor" stroke-width="1.6"/></symbol>
<symbol id="icon-user" viewBox="0 0 24 24"><circle cx="12" cy="8" r="3.5" fill="none" stroke="currentColor" stroke-width="1.6"/><path d="M4.5 20c1-4 4-6 7.5-6s6.5 2 7.5 6" fill="none" stroke="currentColor" stroke-width="1.6" stroke-linecap="round"/></symbol>
<symbol id="icon-home" viewBox="0 0 24 24"><path d="M4 11.5 12 4l8 7.5" fill="none" stroke="currentColor" stroke-width="1.6" stroke-linecap="round" stroke-linejoin="round"/><path d="M6 10v9.5h12V10" fill="none" stroke="currentColor" stroke-width="1.6" stroke-linejoin="round"/></symbol>
<symbol id="icon-list" viewBox="0 0 24 24"><path d="M8.5 6.5h12M8.5 12h12M8.5 17.5h12" stroke="currentColor" stroke-width="1.6" stroke-linecap="round"/><circle cx="4" cy="6.5" r="1" fill="currentColor"/><circle cx="4" cy="12" r="1" fill="currentColor"/><circle cx="4" cy="17.5" r="1" fill="currentColor"/></symbol>
<symbol id="icon-grid" viewBox="0 0 24 24"><rect x="3.5" y="3.5" width="7.5" height="7.5" rx="1.2" fill="none" stroke="currentColor" stroke-width="1.6"/><rect x="13" y="3.5" width="7.5" height="7.5" rx="1.2" fill="none" stroke="currentColor" stroke-width="1.6"/><rect x="3.5" y="13" width="7.5" height="7.5" rx="1.2" fill="none" stroke="currentColor" stroke-width="1.6"/><rect x="13" y="13" width="7.5" height="7.5" rx="1.2" fill="none" stroke="currentColor" stroke-width="1.6"/></symbol>
<symbol id="icon-send" viewBox="0 0 24 24"><path d="M21 3 3 10.5l7 3 3 7Z" fill="none" stroke="currentColor" stroke-width="1.6" stroke-linejoin="round"/><path d="M21 3 10 14" stroke="currentColor" stroke-width="1.6" stroke-linecap="round"/></symbol>
<symbol id="icon-external-link" viewBox="0 0 24 24"><path d="M9 6H5.5a2 2 0 0 0-2 2v10a2 2 0 0 0 2 2h10a2 2 0 0 0 2-2V15" fill="none" stroke="currentColor" stroke-width="1.6" stroke-linecap="round" stroke-linejoin="round"/><path d="M14 4h6v6M20 4 11 13" fill="none" stroke="currentColor" stroke-width="1.6" stroke-linecap="round" stroke-linejoin="round"/></symbol>
<symbol id="icon-dollar" viewBox="0 0 24 24"><path d="M12 3v18M17 7.5c0-1.7-2.2-3-5-3s-5 1.3-5 3 2.2 3 5 3 5 1.3 5 3-2.2 3-5 3-5-1.3-5-3" fill="none" stroke="currentColor" stroke-width="1.6" stroke-linecap="round"/></symbol>
<symbol id="icon-globe" viewBox="0 0 24 24"><circle cx="12" cy="12" r="8.5" fill="none" stroke="currentColor" stroke-width="1.6"/><path d="M3.5 12h17M12 3.5c2.5 3 3.5 5.5 3.5 8.5s-1 5.5-3.5 8.5M12 3.5c-2.5 3-3.5 5.5-3.5 8.5s1 5.5 3.5 8.5" fill="none" stroke="currentColor" stroke-width="1.6"/></symbol>
<symbol id="icon-trophy" viewBox="0 0 24 24"><path d="M8 3.5h8v8c0 2.2-1.8 4-4 4s-4-1.8-4-4v-8Z" fill="none" stroke="currentColor" stroke-width="1.6" stroke-linejoin="round"/><path d="M8 5.5H5c0 2.5 1 4 3 4.5M16 5.5h3c0 2.5-1 4-3 4.5M10 15.5v2h4v-2M8.5 20.5h7" fill="none" stroke="currentColor" stroke-width="1.6" stroke-linecap="round" stroke-linejoin="round"/></symbol>
<symbol id="icon-file-text" viewBox="0 0 24 24"><path d="M7 3.5h7l4 4V19a1.5 1.5 0 0 1-1.5 1.5h-9A1.5 1.5 0 0 1 6 19V5A1.5 1.5 0 0 1 7 3.5Z" fill="none" stroke="currentColor" stroke-width="1.6" stroke-linejoin="round"/><path d="M14 3.5V8h4M9 12.5h6M9 15.5h6" stroke="currentColor" stroke-width="1.6" stroke-linecap="round"/></symbol>
<symbol id="icon-play" viewBox="0 0 24 24"><path d="M6 4l14 8-14 8Z" fill="currentColor" stroke="currentColor" stroke-width="1" stroke-linejoin="round"/></symbol>

<symbol id="icon-social-facebook" viewBox="0 0 24 24"><path d="M14.5 21v-7.5h2.5l.4-3H14.5V8.4c0-.9.2-1.5 1.5-1.5h1.6V4.3C17.3 4.2 16.3 4 15.2 4c-2.3 0-3.9 1.4-3.9 4v2.5H8.8v3h2.5V21Z" fill="currentColor"/></symbol>
<symbol id="icon-social-instagram" viewBox="0 0 24 24"><rect x="3.5" y="3.5" width="17" height="17" rx="4.5" fill="none" stroke="currentColor" stroke-width="1.6"/><circle cx="12" cy="12" r="4" fill="none" stroke="currentColor" stroke-width="1.6"/><circle cx="17" cy="7" r="1.1" fill="currentColor"/></symbol>
<symbol id="icon-social-x" viewBox="0 0 24 24"><path d="M4.5 4.5l15 15M19.5 4.5l-15 15" fill="none" stroke="currentColor" stroke-width="1.7" stroke-linecap="round"/></symbol>
<symbol id="icon-social-linkedin" viewBox="0 0 24 24"><rect x="3.5" y="3.5" width="17" height="17" rx="2.5" fill="none" stroke="currentColor" stroke-width="1.6"/><circle cx="8.2" cy="8.2" r="1.1" fill="currentColor"/><path d="M8.2 11v6M12 11v6M12 13.5c0-1.5 1-2.5 2.4-2.5s2.4 1 2.4 2.5V17" fill="none" stroke="currentColor" stroke-width="1.6" stroke-linecap="round"/></symbol>
<symbol id="icon-social-youtube" viewBox="0 0 24 24"><rect x="2.5" y="6" width="19" height="12" rx="3" fill="none" stroke="currentColor" stroke-width="1.6"/><path d="M10.5 9.5l5 2.5-5 2.5Z" fill="currentColor"/></symbol>
<symbol id="icon-apple" viewBox="0 0 24 24"><path d="M17.5 12.5c0-2.5-2-4-3.5-4-.8 0-1.3.3-2 .3s-1.2-.3-2-.3c-1.8 0-4 1.8-4 4.5 0 3 2.5 6.5 4 6.5.7 0 1-.4 2-.4s1.3.4 2 .4c1.5 0 3.5-3.5 3.5-7ZM14.5 5.5c0-1.5-1-3-2.5-3.5.2 1.5 1 3.5 2.5 3.5Z" fill="currentColor"/></symbol>
<symbol id="icon-google-play" viewBox="0 0 24 24"><path d="M5 3l10 9L5 21V3ZM15 12l4 2.5-4 2.5M15 12l4-2.5-4-2.5" fill="none" stroke="currentColor" stroke-width="1.6" stroke-linejoin="round"/></symbol>


<symbol id="brand-audi" viewBox="0 0 24 24"><circle cx="6" cy="12" r="3.2" fill="none" stroke="currentColor" stroke-width="1.3"/><circle cx="10" cy="12" r="3.2" fill="none" stroke="currentColor" stroke-width="1.3"/><circle cx="14" cy="12" r="3.2" fill="none" stroke="currentColor" stroke-width="1.3"/><circle cx="18" cy="12" r="3.2" fill="none" stroke="currentColor" stroke-width="1.3"/></symbol>
<symbol id="brand-mercedes" viewBox="0 0 24 24"><circle cx="12" cy="12" r="9.5" fill="none" stroke="currentColor" stroke-width="1.3"/><path d="M12 2.5v9.5L4 16.5M12 12l8 4.5" fill="none" stroke="currentColor" stroke-width="1.3" stroke-linecap="round" stroke-linejoin="round"/></symbol>
<symbol id="brand-tesla" viewBox="0 0 24 24"><path d="M11.962.002c-.066-.002-.13-.002-.196 0L1.758.9c-.31.027-.55.286-.55.6v1.36c0 .323.266.577.587.557l1.042-.066c1.884-.12 3.73.572 5.093 1.91l.135.136c-1.252.884-2.25 2.122-2.87 3.567L5.16 8.93c-.156.037-.27.177-.27.337v.933c0 .19.155.344.345.344h3.195c-.015.348-.063.69-.142 1.026C7.546 14.88 5.434 17.5 2.68 18.72c-.22.1-.34.354-.263.585l.385 1.155c.077.23.328.35.556.25 3.974-1.745 6.945-5.26 7.95-9.475l.133-.554v4.494c-.004 2.87-.932 5.626-2.632 7.822l-.183.24c-.167.22-.116.536.113.692l1.043.712c.23.155.54.09.69-.145 2.45-3.834 3.715-8.23 3.634-12.697l-.01-.58 1.077.306c2.723.774 4.883 2.825 5.863 5.56l.163.456c.097.27.4.417.674.32l1.246-.438c.273-.096.418-.4.32-.674-.98-2.735-3.14-4.786-5.863-5.56l-1.077-.306v-.5c0-.19-.155-.344-.344-.344h-2.17c-.035-.372-.035-.746 0-1.118h2.17c.19 0 .344-.155.344-.344v-.933c0-.16-.114-.3-.27-.337l-.035-.008c-1.252-.884-2.25-2.122-2.87-3.567l.135-.136C18.423 4.29 20.27 3.6 22.153 3.72l1.042.066c.32.02.587-.234.587-.557V1.87c0-.315-.24-.573-.55-.6L11.962.002z" fill="currentColor"/></symbol>
<symbol id="brand-toyota" viewBox="0 0 24 24"><path d="M12 3.848C5.223 3.848 0 7.298 0 12c0 4.702 5.224 8.152 12 8.152S24 16.702 24 12c0-4.702-5.223-8.152-12-8.152zm7.334 3.839c0 1.08-1.725 1.913-4.488 2.246-.26-2.58-1.005-4.279-1.963-4.913 2.948.184 6.45 1.227 6.45 2.667zM12 16.401c-.96 0-1.746-1.5-1.808-4.389.577.047 1.18.072 1.808.072.628 0 1.23-.025 1.807-.072-.061 2.89-.847 4.389-1.807 4.389zm0-6.308c-.59 0-1.155-.019-1.69-.054.261-1.728.92-3.15 1.69-3.15.77 0 1.428 1.422 1.689 3.15-.535.034-1.099.054-1.689.054zm-.882-5.075c-.956.633-1.706 2.333-1.964 4.915C6.391 9.6 4.665 8.767 4.665 7.687c0-1.44 3.504-2.49 6.453-2.669zM2.037 11.68a5.265 5.265 0 011.048-3.164c.27 1.547 2.522 2.881 5.972 3.37V12c0 3.772.879 6.203 2.087 6.97-5.107-.321-9.107-3.48-9.107-7.29zm10.823 7.29c1.207-.767 2.087-3.198 2.087-6.97v-.115c3.447-.488 5.704-1.826 5.972-3.37a5.26 5.26 0 011.049 3.165c-.004 3.81-4.008 6.969-9.109 7.29z" fill="currentColor"/></symbol>
<symbol id="brand-honda" viewBox="0 0 24 24"><path d="M2.5 4h19v1.5h-1.5v11.5H21V18.5H3v-1.5h1.5V5.5H3V4h-.5zm5.5 2v10.5h1.5v-4.5h5v4.5h1.5V6H14.5v4.5h-5V6H8z" fill="currentColor"/></symbol>
<symbol id="brand-bmw" viewBox="0 0 24 24"><circle cx="12" cy="12" r="9.5" fill="none" stroke="currentColor" stroke-width="1.3"/><circle cx="12" cy="12" r="6" fill="none" stroke="currentColor" stroke-width="0.8"/><path d="M12 6v12M6 12h12" stroke="currentColor" stroke-width="0.8"/><path d="M8.2 8.5v2h1c.5 0 .8-.2.8-.5 0-.2-.1-.4-.4-.5.3-.1.4-.3.4-.5 0-.3-.3-.5-.8-.5h-1zm.3.3h.6c.2 0 .4.1.4.3 0 .1-.1.2-.4.2h-.6v-.5zm0 .7h.6c.3 0 .4.1.4.2 0 .2-.1.3-.4.3h-.6v-.5zm2.7-1v2.1l-.8-1.3-.8 1.3V8.5h.3v1.3l.5-.8h.1l.5.8V8.5h.3zm2.5 0v2l.5-1.5.5 1.5v-2h.3V10.6h-.3l-.5-1.2-.5 1.2h-.3V8.5h.3z" fill="currentColor"/></symbol>
<symbol id="brand-hyundai" viewBox="0 0 24 24"><ellipse cx="12" cy="12" rx="9.5" ry="6.5" fill="none" stroke="currentColor" stroke-width="1.3"/><path d="M7.5 7.5L8.5 16.5M14.5 7.5L15.5 16.5M8 12l7.5-1" stroke="currentColor" stroke-width="1.5" stroke-linecap="round" stroke-linejoin="round"/></symbol>
<symbol id="brand-ford" viewBox="0 0 24 24"><ellipse cx="12" cy="12" rx="9.5" ry="5.5" fill="none" stroke="currentColor" stroke-width="1.3"/><path d="M7.5 14h2.5c1.2 0 2-.6 2-1.5s-.8-1.5-2-1.5H8v3zm.8-2.2h1.2c.8 0 1.2.3 1.2.7s-.4.7-1.2.7H8.3v-1.4zM13 11v3h1v-3h-1zM15 11l.5.5V14H16v-2.5h-.5zm2.5.5c-.8 0-1.5.5-1.5 1.2s.7 1.3 1.5 1.3c.7 0 1.3-.5 1.3-1.3s-.6-1.2-1.3-1.2z" fill="currentColor"/></symbol>

<symbol id="brand-apple" viewBox="0 0 16 16"><path d="M11.182.008C11.148-.03 9.923.023 8.857 1.18c-1.066 1.156-.902 2.482-.878 2.516s1.52.087 2.475-1.258.762-2.391.728-2.43m3.314 11.733c-.048-.096-2.325-1.234-2.113-3.422s1.675-2.789 1.698-2.854-.597-.79-1.254-1.157a3.7 3.7 0 0 0-1.563-.434c-.108-.003-.483-.095-1.254.116-.508.139-1.653.589-1.968.607-.316.018-1.256-.522-2.267-.665-.647-.125-1.333.131-1.824.328-.49.196-1.422.754-2.074 2.237-.652 1.482-.311 3.83-.067 4.56s.625 1.924 1.273 2.796c.576.984 1.34 1.667 1.659 1.899s1.219.386 1.843.067c.502-.308 1.408-.485 1.766-.472.357.013 1.061.154 1.782.539.571.197 1.111.115 1.652-.105.541-.221 1.324-1.059 2.238-2.758q.52-1.185.473-1.282" fill="currentColor"/></symbol>
<symbol id="brand-google-play" viewBox="0 0 466 511.98"><path d="M199.9 237.8 1.4 470.17c7.22 24.57 30.16 41.81 55.8 41.81 11.16 0 20.93-2.79 29.3-8.37l244.16-139.46L199.9 237.8z" fill="#EA4335"/><path d="m433.91 205.1-104.65-60-111.61 110.22 113.01 108.83 104.64-58.6c18.14-9.77 30.7-29.3 30.7-50.23-1.4-20.93-13.95-40.46-32.09-50.22z" fill="#FBBC04"/><path d="M199.42 273.45 329.27 145.1 87.9 8.37C79.53 2.79 68.36 0 57.2 0 30.7 0 6.98 18.14 1.4 41.86l198.02 231.59z" fill="#34A853"/><path d="M1.39 41.86C0 46.04 0 51.63 0 57.2v397.64c0 5.57 0 9.76 1.4 15.34l216.27-214.86L1.39 41.86z" fill="#4285F4"/></symbol>
</defs>
</svg>
